HIERARCHY
ROOT Hips
{
	OFFSET 0.000000 0.000000 0.000000
	CHANNELS 6 Xposition Yposition Zposition Zrotation Yrotation Xrotation 
	JOINT LeftUpLeg_virtual
	{
		OFFSET 0.000000 0.000000 0.000000
		CHANNELS 3 Zrotation Yrotation Xrotation
		JOINT LeftUpLeg
		{
			OFFSET 10.205400 -3.823500 0.155100
			CHANNELS 3 Zrotation Yrotation Xrotation
			JOINT LeftLeg
			{
				OFFSET 0.708757 -12.982077 0.567790
				CHANNELS 3 Zrotation Yrotation Xrotation
				JOINT LeftFoot
				{
					OFFSET -0.708756 -10.717838 -2.184338
					CHANNELS 3 Zrotation Yrotation Xrotation
					JOINT LeftToeBase
					{
						OFFSET 0.108149 -7.191104 7.560241
						CHANNELS 3 Zrotation Yrotation Xrotation
						End Site
						{
							OFFSET 0.000000 0.000000 0.000000
						}
					}
				}
			}
		}
	}
	JOINT RightUpLeg_virtual
	{
		OFFSET 0.000000 0.000000 0.000000
		CHANNELS 3 Zrotation Yrotation Xrotation
		JOINT RightUpLeg
		{
			OFFSET -10.205400 -3.823500 0.005500
			CHANNELS 3 Zrotation Yrotation Xrotation
			JOINT RightLeg
			{
				OFFSET -0.708756 -12.982134 0.610632
				CHANNELS 3 Zrotation Yrotation Xrotation
				JOINT RightFoot
				{
					OFFSET 0.708754 -10.717769 -1.945823
					CHANNELS 3 Zrotation Yrotation Xrotation
					JOINT RightToeBase
					{
						OFFSET -0.108140 -7.191069 7.372968
						CHANNELS 3 Zrotation Yrotation Xrotation
						End Site
						{
							OFFSET 0.000000 0.000000 0.000000
						}
					}
				}
			}
		}
	}
	JOINT Spine_virtual
	{
		OFFSET 0.000000 0.000000 0.000000
		CHANNELS 3 Zrotation Yrotation Xrotation
		JOINT Spine
		{
			OFFSET 0.000000 6.876099 0.125700
			CHANNELS 3 Zrotation Yrotation Xrotation
			JOINT Spine1
			{
				OFFSET 0.000000 8.022060 0.146608
				CHANNELS 3 Zrotation Yrotation Xrotation
				JOINT Spine2
				{
					OFFSET 0.000000 9.168068 0.167552
					CHANNELS 3 Zrotation Yrotation Xrotation
					JOINT Neck_virtual
					{
						OFFSET 0.000000 0.000000 0.000000
						CHANNELS 3 Zrotation Yrotation Xrotation
						JOINT Neck
						{
							OFFSET 0.000000 10.314075 0.188496
							CHANNELS 3 Zrotation Yrotation Xrotation
							JOINT Head
							{
								OFFSET 0.000000 7.643700 -2.377400
								CHANNELS 3 Zrotation Yrotation Xrotation
								End Site
								{
									OFFSET 0.000000 0.000000 0.000000
								}
							}
						}
					}
					JOINT LeftShoulder_virtual
					{
						OFFSET 0.000000 0.000000 0.000000
						CHANNELS 3 Zrotation Yrotation Xrotation
						JOINT LeftShoulder
						{
							OFFSET 4.392200 8.824978 0.174984
							CHANNELS 3 Zrotation Yrotation Xrotation
							JOINT LeftArm
							{
								OFFSET 8.771219 -2.981674 -0.026999
								CHANNELS 3 Zrotation Yrotation Xrotation
								JOINT LeftForeArm
								{
									OFFSET 8.512804 0.000000 -0.000000
									CHANNELS 3 Zrotation Yrotation Xrotation
									JOINT LeftHand
									{
										OFFSET 18.484802 0.000000 -0.000000
										CHANNELS 3 Zrotation Yrotation Xrotation
										End Site
										{
											OFFSET 0.000000 0.000000 0.000000
										}
									}
								}
							}
						}
					}
					JOINT RightShoulder_virtual
					{
						OFFSET 0.000000 0.000000 0.000000
						CHANNELS 3 Zrotation Yrotation Xrotation
						JOINT RightShoulder
						{
							OFFSET -4.392200 8.824993 0.141379
							CHANNELS 3 Zrotation Yrotation Xrotation
							JOINT RightArm
							{
								OFFSET -8.771282 -2.981682 -0.094208
								CHANNELS 3 Zrotation Yrotation Xrotation
								JOINT RightForeArm
								{
									OFFSET -8.494598 0.000000 0.000000
									CHANNELS 3 Zrotation Yrotation Xrotation
									JOINT RightHand
									{
										OFFSET -18.483803 0.000000 0.000001
										CHANNELS 3 Zrotation Yrotation Xrotation
										End Site
										{
											OFFSET 0.000000 0.000000 0.000000
										}
									}
								}
							}
						}
					}
				}
			}
		}
	}
}
MOTION
Frames: 11
Frame Time: 0.033333
-22.476988 35.011181 28.605001 -179.760252 51.910469 -179.743914 -2.094274 -5.053957 13.996442 -22.421510 6.118458 -18.659003 14.636172 3.920315 27.385509 -2.719704 -1.648852 0.641677 0.000000 0.000000 0.000000 2.941409 -4.157916 13.030911 -0.482878 -15.872212 -45.909301 -7.191107 -4.025256 22.740724 9.985864 13.562327 29.704739 0.000000 0.000000 0.000000 1.771328 -0.956754 1.426723 -1.030040 4.844472 -13.695949 -0.486267 -3.516927 5.854661 0.012377 0.059330 0.032040 -0.675309 -1.727723 6.328027 -6.594105 1.494212 19.776811 0.000000 0.000000 0.000000 1.054786 -0.916387 2.901665 -10.020888 -1.193558 -0.754057 -24.907012 27.711194 -16.053718 1.133406 -56.435394 4.106661 0.000000 0.000000 0.000000 -2.976086 -0.060795 2.329047 20.910744 4.172029 0.577588 19.981971 -14.574437 -19.366532 -2.954237 50.721138 0.046354 0.000000 0.000000 0.000000 
-22.533886 34.987671 28.489740 -179.866516 50.286937 -179.856243 -2.084708 -5.592358 13.908972 -22.427097 5.507120 -18.486660 14.495253 4.209643 27.396433 -2.656724 -1.542536 0.881274 0.000000 0.000000 0.000000 3.072229 -5.032768 12.692634 0.365593 -18.145386 -46.467225 -7.568705 -5.322657 23.482139 9.601276 13.428792 30.944899 0.000000 0.000000 0.000000 1.871918 -1.331025 1.245788 -1.120191 5.310303 -13.670262 -0.497570 -3.461703 5.808534 0.021951 0.048612 0.045122 -0.624188 -1.667085 6.254651 -5.793788 1.329351 20.205945 0.000000 0.000000 0.000000 1.022061 -0.840275 2.846663 -9.716465 -0.883957 -1.027063 -23.238858 27.176802 -20.283732 1.152465 -51.206505 3.841676 0.000000 0.000000 0.000000 -2.947873 -0.019521 2.222361 20.929658 4.160903 0.220366 18.944105 -11.439487 -26.137368 -2.955808 46.165214 0.306374 0.000000 0.000000 0.000000 
-22.592096 34.954090 28.367746 -179.921308 48.729370 -179.944175 -2.057962 -6.026089 13.879454 -22.529473 5.061924 -18.312874 14.258288 4.184716 27.265130 -2.561224 -1.398078 1.080994 0.000000 0.000000 0.000000 3.105386 -5.746095 12.477740 1.041147 -20.355043 -47.122121 -7.717417 -6.047603 23.994212 9.513205 13.461236 32.704281 0.000000 0.000000 0.000000 1.960011 -1.737658 1.160193 -1.270118 5.731943 -13.680898 -0.519986 -3.405427 5.759543 0.016711 0.057055 0.066318 -0.642527 -1.636603 6.057920 -5.122635 1.093486 20.535310 0.000000 0.000000 0.000000 1.018038 -0.759016 2.648522 -9.488115 -0.346086 -1.251909 -22.464202 26.566272 -25.977129 1.365711 -46.827446 3.227691 0.000000 0.000000 0.000000 -2.962275 -0.011132 2.090644 20.892456 4.093786 -0.364078 18.021280 -8.799889 -32.362106 -3.014949 42.326525 0.591812 0.000000 0.000000 0.000000 
-22.646486 34.921825 28.232645 -179.981686 47.047774 179.975198 -1.987491 -6.593879 13.849917 -22.659566 4.805604 -18.133925 14.052508 4.055217 27.115451 -2.490967 -1.262478 1.262298 0.000000 0.000000 0.000000 3.085983 -6.414100 12.417273 1.697896 -22.566906 -47.986471 -7.726691 -6.334381 24.266086 9.615010 13.459225 35.158761 0.000000 0.000000 0.000000 2.067332 -2.023983 1.075954 -1.474924 6.023423 -13.702277 -0.581644 -3.365974 5.674847 -0.004780 0.018153 0.080426 -0.634488 -1.642855 6.009393 -4.522859 0.873128 21.024543 0.000000 0.000000 0.000000 1.075338 -0.757901 2.494673 -9.290041 0.333386 -1.570791 -22.508733 25.835843 -32.794853 1.497030 -43.479253 2.576090 0.000000 0.000000 0.000000 -2.936805 -0.015396 1.933882 20.872182 3.936101 -0.667890 17.372212 -6.794459 -38.178965 -3.252297 39.384435 0.844752 0.000000 0.000000 0.000000 
-22.692596 34.889294 28.093460 -179.971359 45.425464 179.959229 -1.909860 -7.149427 13.843602 -22.772479 4.514737 -17.959409 13.813502 4.073771 27.010214 -2.485099 -1.172345 1.467856 0.000000 0.000000 0.000000 3.037852 -6.830550 12.390616 2.142687 -24.560221 -48.650293 -7.736272 -6.184409 24.637549 9.779210 13.733972 36.628819 0.000000 0.000000 0.000000 2.171446 -2.506899 0.976496 -1.677515 6.291847 -13.806970 -0.559536 -3.326161 5.625044 -0.040543 0.006032 0.006430 -0.649449 -1.624039 5.913258 -4.077555 0.541232 21.435480 0.000000 0.000000 0.000000 1.130719 -0.695098 2.354775 -9.209914 1.194929 -2.026139 -23.038086 24.975265 -40.019315 1.601969 -41.146050 1.889824 0.000000 0.000000 0.000000 -2.925805 0.029278 1.796637 20.799830 3.711490 -1.070356 17.033799 -5.282890 -43.384819 -3.576210 37.155030 0.994185 0.000000 0.000000 0.000000 
-22.739986 34.862839 27.958534 -179.870600 43.951379 -179.993380 -1.802502 -7.596208 13.819815 -22.818690 4.278656 -17.789089 13.626392 4.051077 26.933709 -2.500367 -1.092046 1.601067 0.000000 0.000000 0.000000 2.946909 -7.092558 12.345553 2.357131 -26.107085 -48.732365 -7.577589 -5.648967 25.106693 9.934815 14.158780 36.830142 0.000000 0.000000 0.000000 2.290204 -2.880005 0.853681 -1.909433 6.444040 -13.884865 -0.507884 -3.269271 5.565429 0.011175 -0.000786 0.000944 -0.617392 -1.574651 5.807536 -3.514460 0.693731 21.860647 0.000000 0.000000 0.000000 1.121566 -0.626606 2.208122 -9.159963 2.088194 -2.639738 -23.668892 24.027564 -46.613452 1.712545 -39.742808 1.197715 0.000000 0.000000 0.000000 -2.972272 0.063557 1.656623 20.752442 3.390948 -1.338660 16.952173 -4.199486 -47.532318 -4.173579 35.539195 1.000668 0.000000 0.000000 0.000000 
-22.783089 34.844997 27.835793 -179.802162 42.466274 -179.925966 -1.753864 -8.136363 13.724162 -22.772756 4.104086 -17.632427 13.443425 4.061546 26.934156 -2.518428 -1.014227 1.711482 0.000000 0.000000 0.000000 2.803822 -7.319120 12.827252 2.426080 -27.239542 -48.855155 -7.232849 -5.058898 25.075733 10.119799 14.582116 36.708995 0.000000 0.000000 0.000000 2.367410 -3.130149 0.624815 -2.171935 6.483282 -13.977694 -0.478596 -3.279645 5.535843 -0.003932 -0.054174 0.029936 -0.530119 -1.543852 5.723272 -3.045821 0.727188 22.282140 0.000000 0.000000 0.000000 1.206269 -0.672520 2.073270 -9.077324 2.802448 -3.015153 -24.403052 23.295065 -51.933408 1.780681 -39.031218 0.527273 0.000000 0.000000 0.000000 -2.884608 0.036247 1.497456 20.706588 2.982610 -1.655735 16.991089 -3.468577 -50.839318 -4.504730 34.468703 1.254405 0.000000 0.000000 0.000000 
-22.829664 34.830887 27.723274 -179.710173 41.166356 -179.700105 -1.734375 -8.586276 13.485408 -22.701028 4.129117 -17.538244 13.236007 4.032658 27.044933 -2.560396 -0.967654 1.745465 0.000000 0.000000 0.000000 2.683354 -7.594440 12.932552 2.338342 -28.013941 -48.611918 -6.899294 -4.542878 24.943967 10.104626 14.881100 36.276719 0.000000 0.000000 0.000000 2.425773 -3.335740 0.222851 -2.413935 6.486954 -14.111032 -0.391056 -3.259788 5.514807 0.019202 -0.080516 0.072240 -0.460779 -1.510619 5.704677 -2.800988 0.714808 22.648316 0.000000 0.000000 0.000000 1.270462 -0.646385 2.071917 -9.070399 3.470092 -3.437983 -25.049782 22.902751 -55.346498 1.770191 -38.669287 0.066194 0.000000 0.000000 0.000000 -2.822854 0.063204 1.408551 20.701733 2.609135 -1.845450 17.203817 -3.004662 -53.141201 -4.754193 33.876659 1.564166 0.000000 0.000000 0.000000 
-22.873692 34.810669 27.620543 -179.656597 40.127204 -179.590303 -1.711046 -8.779062 13.206774 -22.584408 4.060049 -17.366367 13.053405 4.128611 27.269879 -2.605695 -0.929709 1.717124 0.000000 0.000000 0.000000 2.575807 -7.845928 12.935399 1.944381 -28.396824 -48.084815 -6.610037 -4.172894 24.812402 10.106899 15.106500 35.975839 0.000000 0.000000 0.000000 2.504842 -3.494597 -0.141372 -2.633022 6.460117 -14.205582 -0.337146 -3.213063 5.536991 -0.010735 -0.089678 0.068663 -0.369754 -1.444907 5.761929 -2.634875 0.750151 23.003816 0.000000 0.000000 0.000000 1.358747 -0.628516 2.097350 -9.141231 3.963151 -3.710398 -25.534157 22.963489 -56.783587 1.628652 -38.393391 -0.215000 0.000000 0.000000 0.000000 -2.708289 0.118904 1.445846 20.740947 2.279413 -1.985235 17.552516 -2.772885 -54.205997 -5.223078 33.608349 1.678873 0.000000 0.000000 0.000000 
-22.929312 34.786507 27.527185 -179.605138 39.234608 -179.594620 -1.708729 -8.893157 12.957323 -22.521014 4.119367 -17.139796 12.860567 4.217261 27.500696 -2.662271 -0.919539 1.659372 0.000000 0.000000 0.000000 2.504005 -8.157088 12.818497 1.423395 -28.663449 -47.445977 -6.654158 -4.485530 24.799503 10.077594 15.227389 35.793774 0.000000 0.000000 0.000000 2.566109 -3.614031 -0.487400 -2.825275 6.418816 -14.254499 -0.293786 -3.170818 5.615638 -0.032265 -0.089044 0.045960 -0.351266 -1.330360 5.840842 -2.559162 0.833418 23.261299 0.000000 0.000000 0.000000 1.427382 -0.557791 2.214550 -9.197855 4.345629 -3.891877 -26.078868 23.256338 -56.699484 1.595487 -38.116711 -0.493297 0.000000 0.000000 0.000000 -2.646462 0.177715 1.491753 20.859983 2.010369 -2.054910 17.892541 -2.765540 -54.429859 -5.527731 33.557143 1.945571 0.000000 0.000000 0.000000 
-22.991692 34.762836 27.439680 -179.577162 38.602122 -179.518040 -1.695146 -8.928484 12.678725 -22.539225 4.243831 -16.937131 12.662514 4.333151 27.643504 -2.747627 -0.937784 1.655019 0.000000 0.000000 0.000000 2.464105 -8.366403 12.571370 0.806809 -28.824003 -46.810275 -6.664712 -4.747020 24.783201 10.105074 15.293080 35.607798 0.000000 0.000000 0.000000 2.599538 -3.692769 -0.860269 -3.035538 6.376274 -14.379923 -0.233617 -3.124324 5.695795 0.008967 -0.086139 0.072412 -0.235470 -1.403375 5.930154 -2.374412 0.994112 23.467656 0.000000 0.000000 0.000000 1.429528 -0.543733 2.334275 -9.348241 4.531563 -4.003405 -26.417850 23.563184 -55.702392 1.703541 -37.713993 -0.869336 0.000000 0.000000 0.000000 -2.600068 0.229323 1.574163 20.992634 1.761282 -1.938594 18.247422 -2.972972 -54.264494 -5.829474 33.550497 2.059685 0.000000 0.000000 0.000000 
